<svg width="87" height="107" viewBox="0 0 87 107" fill="none" xmlns="http://www.w3.org/2000/svg">
<path d="M65.687 104.375C65.687 104.375 85.076 100.065 86.3845 90.8708C87.1094 85.7503 84.0593 80.7247 73.2601 77.1095L82.2228 77.1165C84.3511 74.2656 83.2418 66.3567 80.7336 63.4455C80.7267 63.4479 80.729 63.4478 80.722 63.4478C80.3376 65.1431 79.0592 66.894 78.9943 68.6726C78.9063 71.1715 77.577 75.6296 69.3763 76.0558C69.2883 76.0627 69.2026 76.072 69.1076 76.0743C61.3446 76.3823 60.8467 79.7729 61.4072 82.0401C67.8038 83.3718 70.9233 84.363 72.9104 85.0439C73.4477 85.2269 73.2647 85.9981 72.6973 85.9471C59.1074 84.7428 49.7164 84.8355 40.0427 85.6461C22.6338 87.1074 24.2017 79.8956 26.9994 74.5087L37.8125 76.6811C36.3326 71.9381 36.2562 65.5901 36.2562 65.5901C37.3817 68.5846 40.228 74.8839 41.8098 77.4847L52.4491 79.6223C51.9582 75.4305 50.8002 72.9802 47.6343 65.9097C43.109 55.8053 40.8209 44.1214 44.8761 33.6627C40.9922 37.4376 38.4818 41.201 37.4257 42.8453C37.3006 43.0399 36.9949 42.9171 37.0343 42.6878C40.8463 21.1728 65.0501 16.798 78.427 24.6444C78.427 24.6444 78.112 18.8916 71.544 15.207C71.4838 15.1723 71.3657 15.0982 71.2175 14.9986C67.8154 13.4168 62.5628 11.8443 54.9828 12.942C54.9828 12.942 58.3362 10.0934 65.8538 9.57002C62.8824 6.17023 55.7192 0.966337 45.3786 0.273873C4.89149 -2.43345 1.53339 39.8392 2.6682 52.1739C2.73536 52.8988 2.77241 53.626 2.79789 54.3555L5.94524 48.3619C6.74424 46.6759 6.97583 47.1391 6.95267 48.4545C6.78361 58.5473 4.37273 67.0978 3.72658 69.8352L20.6421 73.235L18.8542 74.6407C18.8542 74.6407 14.4447 73.5476 10.7763 73.6403C7.46449 73.726 4.58348 74.9071 3.66174 78.0266C3.07812 80.0044 3.56215 81.9869 4.66685 83.5849C7.11247 86.4427 11.4826 89.553 19.2595 90.8476C19.2595 90.8476 10.8712 93.504 3.04801 89.3909C0.799245 90.5327 -1.3731 95.6416 1.32496 99.5162C6.01935 106.258 21.8974 108.15 41.8839 100.199C62.6022 91.9616 65.6036 103.3 65.6801 104.377L65.687 104.375Z" fill="#131C30"/>
<path d="M71.2268 49.4782C71.8359 49.3601 72.5376 49.3184 72.6974 49.3855L72.7692 49.418C73.0911 49.5662 73.4964 49.7538 73.9179 49.7538C74.1055 49.7538 74.2954 49.7167 74.483 49.6241C74.8582 49.4411 75.0921 49.0659 75.1083 48.6236C75.1291 48.1048 74.8512 47.5884 74.4205 47.3359C73.8021 46.977 72.9568 47.0279 72.1578 47.4703C71.5811 47.7875 71.0901 48.2415 70.7358 48.7857C70.6362 48.9409 70.6385 49.1354 70.7451 49.2883C70.8516 49.4388 71.0461 49.5129 71.2245 49.4782H71.2268Z" fill="#131C30"/>
<path d="M76.2084 48.2345C76.0787 48.3665 75.8749 48.5541 75.7985 48.8436C75.7035 49.2118 75.861 49.5801 76.2084 49.807C76.4214 49.9437 76.6716 50.0131 76.9194 50.0131C77.1672 50.0131 77.4104 49.9437 77.6026 49.807C78.207 49.3739 78.2974 48.6097 78.3529 48.1534C78.434 47.3568 77.3339 47.0997 76.2084 48.2368V48.2345Z" fill="#131C30"/>
<path d="M75.9536 60.4742C75.37 60.5738 74.6822 60.6386 73.9156 60.6154C72.9545 60.5877 72.1184 60.4279 71.4398 60.2403C71.0114 60.1222 70.6362 60.5575 70.8261 60.9605C71.4121 62.2065 72.6858 62.9939 73.9851 62.892C75.018 62.8109 75.9559 62.1787 76.4932 61.2407C76.7086 60.8632 76.382 60.4024 75.9536 60.4742Z" fill="#131C30"/>
<path d="M77.1649 59.2815C77.1649 59.2815 77.1811 59.263 77.1927 59.256C78.082 58.6608 78.1237 57.9082 78.0357 57.0049C77.9847 56.7965 77.9176 56.5881 77.8458 56.3889C77.5516 56.1133 77.2714 55.8331 76.6947 55.6756C75.8587 55.4463 75.7568 55.84 74.4321 55.7127C73.1259 55.5853 73.0703 55.1846 72.2366 55.2541C71.294 55.3328 71.2407 55.8447 69.7168 56.4978C69.1564 56.7386 68.6585 56.9494 68.1374 57.0605C67.2573 57.4033 66.3263 57.6025 65.3513 57.6326C65.2124 57.6465 65.0734 57.6627 64.9321 57.6719C65.3374 58.3343 66.1318 58.6446 66.6482 58.8021C69.0637 59.5478 71.0068 58.7627 74.175 59.0198C75.2357 59.1055 76.0324 59.2746 76.6994 59.3973C76.8592 59.3718 77.012 59.3325 77.1602 59.2838L77.1649 59.2815Z" fill="#131C30"/>
<path d="M58.8968 37.0601C58.6606 37.1366 58.5147 37.3797 58.5541 37.6229C58.6096 37.9703 58.7208 38.276 58.8991 38.5377C59.2697 39.0866 59.8649 39.515 60.7403 39.5729C61.5046 39.6239 61.9029 39.4988 62.4124 39.0889C62.9566 38.6558 63.348 37.9958 63.5078 37.2825C63.9154 37.5905 64.4203 38.3154 65.1197 40.1357C65.1892 40.314 65.3675 40.4321 65.5621 40.4321C65.576 40.4321 65.5899 40.4321 65.6038 40.4298C65.8168 40.4113 65.9882 40.2584 66.0229 40.0546C66.4213 37.8638 65.2749 35.8281 64.1748 34.7535C62.5398 33.1555 60.2516 32.6761 58.0585 33.4658C55.284 34.5983 53.5748 36.9467 53.5586 37.6715C53.554 37.8754 53.6744 38.0606 53.8736 38.1301C53.9917 38.1695 54.7443 38.4103 56.5299 37.2176C56.6735 37.1204 56.8148 37.0462 56.9491 36.986C60.2841 34.7743 60.2725 37.2524 60.2725 37.2524C59.6981 36.9119 59.2118 36.9559 58.8968 37.0601Z" fill="#131C30"/>
<path d="M74.9924 36.8263C75.6594 37.125 75.9604 38.0143 75.9604 38.0143C75.9535 38.0097 75.9465 38.0051 75.9396 38.0004C75.1915 37.565 74.242 38.2089 74.3763 39.0658C74.469 39.6679 74.7816 40.189 75.2796 40.5665C75.6362 40.8375 76.1642 40.988 76.5603 40.988C77.0211 40.988 77.5167 40.8351 77.8942 40.4414C78.4732 39.837 78.5311 39.1955 78.6075 39.0009C78.8044 39.4965 78.9665 40.0083 79.0731 40.5248C79.1008 40.6591 79.1935 40.7726 79.3232 40.8282C79.4529 40.8861 79.6034 40.8791 79.7238 40.812C80.0944 40.6082 80.1245 40.1844 80.1361 40.0269C80.194 39.1955 80.2264 38.2367 79.8628 37.3589C79.4598 36.3885 78.6631 35.835 77.6789 35.7424C76.375 35.622 75.5019 36.1917 74.9924 36.8286V36.8263Z" fill="#131C30"/>
<path d="M58.1904 103.713C58.2622 103.652 58.327 103.576 58.3849 103.486C58.4451 103.395 58.4752 103.277 58.4752 103.136C58.4752 103.018 58.4498 102.902 58.4034 102.796C58.3525 102.689 58.2876 102.596 58.1996 102.513C58.1116 102.43 58.0097 102.365 57.8893 102.318C57.7689 102.27 57.6415 102.247 57.5002 102.247H56.4048V104.922H57.0972V104.028H57.2987L57.9055 104.922H58.6767L57.9055 103.865C58.0074 103.828 58.1047 103.777 58.1904 103.713ZM57.7364 103.337C57.6762 103.393 57.5859 103.419 57.4608 103.419H57.0972V102.851H57.4608C57.5859 102.851 57.6762 102.877 57.7364 102.93C57.799 102.985 57.8268 103.053 57.8268 103.134C57.8268 103.215 57.799 103.282 57.7364 103.337Z" fill="#131C30"/>
<path d="M59.7745 102.562C59.6425 102.244 59.4596 101.971 59.2256 101.735C58.9894 101.501 58.7138 101.316 58.3965 101.184C58.0816 101.052 57.7411 100.984 57.3799 100.984C57.0186 100.984 56.6712 101.052 56.3585 101.184C56.0459 101.318 55.7703 101.501 55.5364 101.735C55.3001 101.971 55.1172 102.244 54.9852 102.562C54.8532 102.879 54.786 103.219 54.786 103.581C54.786 103.942 54.8532 104.289 54.9852 104.602C55.1172 104.917 55.3001 105.19 55.5364 105.424C55.7703 105.658 56.0459 105.841 56.3585 105.975C56.6712 106.11 57.0116 106.174 57.3799 106.174C57.7481 106.174 58.0816 106.11 58.3965 105.975C58.7138 105.841 58.9894 105.658 59.2256 105.424C59.4596 105.19 59.6425 104.917 59.7745 104.602C59.9088 104.289 59.9737 103.947 59.9737 103.581C59.9737 103.215 59.9065 102.879 59.7745 102.562ZM59.1353 104.347C59.0357 104.581 58.8991 104.79 58.7254 104.963C58.554 105.139 58.3502 105.276 58.1209 105.378C57.8917 105.48 57.6439 105.526 57.3799 105.526C57.1158 105.526 56.868 105.477 56.6364 105.378C56.4072 105.278 56.2057 105.139 56.032 104.963C55.8583 104.787 55.7216 104.581 55.6221 104.347C55.5225 104.113 55.4738 103.856 55.4738 103.581C55.4738 103.305 55.5248 103.048 55.6221 102.812C55.724 102.578 55.8583 102.372 56.032 102.196C56.2034 102.02 56.4072 101.883 56.6364 101.783C56.868 101.684 57.1158 101.633 57.3799 101.633C57.6439 101.633 57.8917 101.684 58.1209 101.783C58.3502 101.883 58.5517 102.02 58.7254 102.196C58.8991 102.372 59.0357 102.578 59.1353 102.812C59.2349 103.048 59.2859 103.303 59.2859 103.581C59.2859 103.859 59.2349 104.111 59.1353 104.347Z" fill="#131C30"/>
</svg>
