<svg width="20" height="16" viewBox="0 0 20 16" fill="none" xmlns="http://www.w3.org/2000/svg">
<path fill-rule="evenodd" clip-rule="evenodd" d="M3 2C2.73478 2 2.48043 2.10536 2.29289 2.29289C2.10536 2.48043 2 2.73478 2 3V13C2 13.2652 2.10536 13.5196 2.29289 13.7071C2.48043 13.8946 2.73478 14 3 14H5C5.26522 14 5.51957 13.8946 5.70711 13.7071C5.89464 13.5196 6 13.2652 6 13V3C6 2.73478 5.89464 2.48043 5.70711 2.29289C5.51957 2.10536 5.26522 2 5 2H3ZM7 0.763927C6.45148 0.273276 5.73983 0 5 0H3C2.20435 0 1.44129 0.31607 0.87868 0.87868C0.31607 1.44129 0 2.20435 0 3V13C0 13.7956 0.31607 14.5587 0.87868 15.1213C1.44129 15.6839 2.20435 16 3 16H5C5.73983 16 6.45148 15.7267 7 15.2361C7.54852 15.7267 8.26017 16 9 16H11C11.7398 16 12.4515 15.7267 13 15.2361C13.5485 15.7267 14.2602 16 15 16H17C17.7957 16 18.5587 15.6839 19.1213 15.1213C19.6839 14.5587 20 13.7957 20 13V3C20 2.20435 19.6839 1.44129 19.1213 0.87868C18.5587 0.31607 17.7957 0 17 0H15C14.2602 0 13.5485 0.273276 13 0.763927C12.4515 0.273276 11.7398 0 11 0H9C8.26017 0 7.54852 0.273276 7 0.763927ZM12 3C12 2.73478 11.8946 2.48043 11.7071 2.29289C11.5196 2.10536 11.2652 2 11 2H9C8.73478 2 8.48043 2.10536 8.29289 2.29289C8.10536 2.48043 8 2.73478 8 3V13C8 13.2652 8.10536 13.5196 8.29289 13.7071C8.48043 13.8946 8.73478 14 9 14H11C11.2652 14 11.5196 13.8946 11.7071 13.7071C11.8946 13.5196 12 13.2652 12 13V3ZM14 13C14 13.2652 14.1054 13.5196 14.2929 13.7071C14.4804 13.8946 14.7348 14 15 14H17C17.2652 14 17.5196 13.8946 17.7071 13.7071C17.8946 13.5196 18 13.2652 18 13V3C18 2.73478 17.8946 2.48043 17.7071 2.29289C17.5196 2.10536 17.2652 2 17 2H15C14.7348 2 14.4804 2.10536 14.2929 2.29289C14.1054 2.48043 14 2.73478 14 3V13Z" fill="url(#paint0_linear_1931_4)"/>
<defs>
<linearGradient id="paint0_linear_1931_4" x1="0" y1="8" x2="20" y2="8" gradientUnits="userSpaceOnUse">
<stop stop-color="#9F7AEA"/>
<stop offset="1" stop-color="#6B46C1"/>
</linearGradient>
</defs>
</svg>
