<svg width="98" height="98" viewBox="0 0 98 98" fill="none" xmlns="http://www.w3.org/2000/svg">
<rect width="98" height="98" rx="8" fill="url(#paint0_linear_1938_2)"/>
<path d="M41.8303 37.7727V45.4432H21.1839V37.7727H41.8303ZM25.5092 29.9318H35.9283V60.2088C35.9283 60.848 36.0277 61.3665 36.2266 61.7642C36.4396 62.1477 36.745 62.4247 37.1428 62.5952C37.5405 62.7514 38.0163 62.8295 38.5703 62.8295C38.968 62.8295 39.3871 62.794 39.8274 62.723C40.282 62.6378 40.6229 62.5668 40.8501 62.5099L42.4268 70.0312C41.9297 70.1733 41.2266 70.3509 40.3175 70.5639C39.4226 70.777 38.3501 70.9119 37.1001 70.9688C34.657 71.0824 32.5618 70.7983 30.8146 70.1165C29.0817 69.4205 27.7536 68.3409 26.8303 66.8778C25.9212 65.4148 25.4808 63.5753 25.5092 61.3594V29.9318ZM75.3086 47.7656L65.7418 48.0213C65.6424 47.3395 65.3725 46.7358 64.9322 46.2102C64.4918 45.6705 63.9165 45.2514 63.2063 44.9531C62.5103 44.6406 61.7006 44.4844 60.7773 44.4844C59.57 44.4844 58.5401 44.7259 57.6879 45.2088C56.8498 45.6918 56.4379 46.3452 56.4521 47.169C56.4379 47.8082 56.6935 48.3622 57.2191 48.831C57.7589 49.2997 58.7177 49.6761 60.0955 49.9602L66.4023 51.1534C69.6694 51.7784 72.0984 52.8153 73.6893 54.2642C75.2944 55.7131 76.104 57.6307 76.1183 60.017C76.104 62.2614 75.4364 64.2145 74.1154 65.8764C72.8086 67.5384 71.0188 68.831 68.7461 69.7543C66.4734 70.6634 63.8739 71.1179 60.9478 71.1179C56.2745 71.1179 52.5884 70.1591 49.8896 68.2415C47.2049 66.3097 45.6708 63.7244 45.2873 60.4858L55.5785 60.2301C55.8058 61.4233 56.3952 62.3324 57.3469 62.9574C58.2987 63.5824 59.5131 63.8949 60.9904 63.8949C62.3256 63.8949 63.4123 63.6463 64.2504 63.1491C65.0884 62.652 65.5146 61.9915 65.5288 61.1676C65.5146 60.429 65.1879 59.8395 64.5487 59.3991C63.9094 58.9446 62.908 58.5895 61.5444 58.3338L55.8342 57.2472C52.5529 56.6506 50.1097 55.5497 48.5046 53.9446C46.8995 52.3253 46.104 50.2656 46.1183 47.7656C46.104 45.5781 46.6864 43.7102 47.8654 42.1619C49.0444 40.5994 50.7205 39.4062 52.8938 38.5824C55.0671 37.7585 57.631 37.3466 60.5856 37.3466C65.0174 37.3466 68.5117 38.277 71.0685 40.1378C73.6254 41.9844 75.0387 44.527 75.3086 47.7656Z" fill="white"/>
<defs>
<linearGradient id="paint0_linear_1938_2" x1="98" y1="44.5" x2="0" y2="44.5" gradientUnits="userSpaceOnUse">
<stop stop-color="#181B25"/>
<stop offset="1" stop-color="#2D3748"/>
</linearGradient>
</defs>
</svg>
